{"title":"DJ Khaled Ft. Future, T.I. &amp; Lil Wayne - Bitches &amp; Bottl","uid":9351469,"size":87981548,"categoryP":"video","categoryS":"music_videos","magnet":"?xt=urn:btih:5155bf945b10587c7a9280df38f9333c0b32b55c&amp;dn=DJ+Khaled+Ft.+Future%2C+T.I.+%26amp%3B+Lil+Wayne+-+Bitches+%26amp%3B+Bottl&amp;tr=udp%3A%2F%2Ftracker.openbittorrent.com%3A80&amp;tr=udp%3A%2F%2Fopen.demonii.com%3A1337&amp;tr=udp%3A%2F%2Ftracker.coppersurfer.tk%3A6969&amp;tr=udp%3A%2F%2Fexodus.desync.com%3A6969","seeders":1,"leechers":0,"uploader":"Sbyky","files":1,"time":1387131701,"description":"\n\nGeneral\nComplete name                            : DJ Khaled Ft. Future, T.I. &amp; Lil Wayne - Bitches &amp; Bottles [Let's Get It Started] 720p [Sbyky].mp4\nFormat                                   : MPEG-4\nFormat profile                           : Base Media\nCodec ID                                 : isom\nFile size                                : 83.9 MiB\nDuration                                 : 5mn 15s\nOverall bit rate mode                    : Variable\nOverall bit rate                         : 2 230 Kbps\nEncoded date                             : UTC 2013-12-03 05:02:30\nTagged date                              : UTC 2013-12-03 05:02:30\n\nVideo\nID                                       : 1\nFormat                                   : AVC\nFormat/Info                              : Advanced Video Codec\nFormat profile                           : &lt;a class=&quot;__cf_email__&quot; href=&quot;/cdn-cgi/l/email-protection&quot; data-cfemail=&quot;b7fad6ded9f7fb849986&quot;&gt;[email&amp;#160;protected]&lt;/a&gt;&lt;script data-cfhash='f9e31' type=&quot;text/javascript&quot;&gt;\n/* &lt;![CDATA[ */!function(){try{var t=&quot;currentScript&quot;in document?document.currentScript:function(){for(var t=document.getElementsByTagName(&quot;script&quot;),e=t.length;e--;)if(t[e].getAttribute(&quot;data-cfhash&quot;))return t[e]}();if(t&amp;&amp;t.previousSibling){var e,r,n,i,c=t.previousSibling,a=c.getAttribute(&quot;data-cfemail&quot;);if(a){for(e=&quot;&quot;,r=parseInt(a.substr(0,2),16),n=2;a.length-n;n+=2)i=parseInt(a.substr(n,2),16)^r,e+=String.fromCharCode(i);e=document.createTextNode(e),c.parentNode.replaceChild(e,c)}t.parentNode.removeChild(t);}}catch(u){}}()/* ]]&gt; */&lt;/script&gt;\nFormat settings, CABAC                   : Yes\nFormat settings, ReFrames                : 3 frames\nCodec ID                                 : avc1\nCodec ID/Info                            : Advanced Video Coding\nDuration                                 : 5mn 15s\nDuration_LastFrame                       : -41ms\nBit rate                                 : 2 101 Kbps\nWidth                                    : 1 280 pixels\nHeight                                   : 720 pixels\nDisplay aspect ratio                     : 16:9\nFrame rate mode                          : Constant\nFrame rate                               : 23.976 fps\nColor space                              : YUV\nChroma subsampling                       : 4:2:0\nBit depth                                : 8 bits\nScan type                                : Progressive\nBits/(Pixel*Frame)                       : 0.095\nStream size                              : 79.0 MiB (94%)\nEncoded date                             : UTC 2013-12-03 05:02:30\nTagged date                              : UTC 2013-12-03 05:02:30\n\nAudio\nID                                       : 2\nFormat                                   : AAC\nFormat/Info                              : Advanced Audio Codec\nFormat profile                           : LC\nCodec ID                                 : 40\nDuration                                 : 5mn 15s\nBit rate mode                            : Variable\nBit rate                                 : 126 Kbps\nChannel(s)                               : 2 channels\nChannel positions                        : Front: L R\nSampling rate                            : 44.1 KHz\nCompression mode                         : Lossy\nDelay relative to video                  : 42ms\nStream size                              : 4.73 MiB (6%)\nEncoded date                             : UTC 2013-12-03 05:01:09\nTagged date                              : UTC 2013-12-03 05:01:09\n\nShared By Sbyky\n","torrent":{"xt":"urn:btih:5155bf945b10587c7a9280df38f9333c0b32b55c","amp;dn":"DJ+Khaled+Ft.+Future%2C+T.I.+%26amp%3B+Lil+Wayne+-+Bitches+%26amp%3B+Bottl","amp;tr":["udp%3A%2F%2Ftracker.openbittorrent.com%3A80","udp%3A%2F%2Fopen.demonii.com%3A1337","udp%3A%2F%2Ftracker.coppersurfer.tk%3A6969","udp%3A%2F%2Fexodus.desync.com%3A6969"],"infoHash":"5155bf945b10587c7a9280df38f9333c0b32b55c","infoHashBuffer":{"type":"Buffer","data":[81,85,191,148,91,16,88,124,122,146,128,223,56,249,51,60,11,50,181,92]},"announce":[],"urlList":[]}}